Patient4_TMGait_0pt4_02_left_19_EMG.mot
version=1
nRows=13
nColumns=33
inDegrees=no
endheader
time	1LAddLong	2LGlutMax	3LGlutMed	4LIliopsoas	5LSemiMemb	6LBicFemLong	7LRecFem	8LVastMed	9LVastLat	10LGasMed	11LTibAnt	12lTibPost	13LPeroneusLong	14LSol	15LExtDigLong	16LFlexDigLong	17RAddLong	18RGlutMax	19RGlutMed	20RIliopsoas	21RSemiMemb	22RBicFemLong	23RRecFem	24RVastMed	25RVastLat	26RGasMed	27RTibAnt	28RTibPost	29RPeroneusLong	30RSol	31RExtDigLong	32RFlexDigLong
26.4	-0.006714	0.087128	0.090027	0.014648	-0.023956	-0.00824	0.059967	0.010986	0.033569	0.00946	0.14984	0.000916	-0.036316	-0.083771	0.26093	-0.015564	0.017242	-0.067902	0.027466	0.012207	0.080872	0.18036	-0.11536	0.10529	-0.21805	-0.019989	-0.19073	-0.007935	-0.34653	-0.080719	-0.001831	-0.010223
26.401	-0.005798	0.090179	0.20477	0.014038	-0.033569	-0.033569	0.059814	0.007324	0.033569	0.03006	0.14313	0.000916	-0.011292	-0.12482	0.54016	-0.014038	0.003967	-0.058136	-0.010986	-0.067596	-0.1181	0.37888	-0.056458	0.047607	-0.31479	-0.01297	-0.21393	-0.005035	-0.19073	-0.13367	-0.000305	-0.010681
26.402	0.001526	0.11124	0.29053	0.018311	-0.035248	-0.092468	0.064697	-0.004425	0.018616	-0.015564	0.045166	0.009003	0.12039	-0.011444	-0.13947	-0.006866	-0.012665	-0.085297	-0.088806	-0.080566	0.077209	0.45334	0.061798	-0.04715	-0.35034	-0.005493	-0.24445	-0.005035	0.000153	-0.19653	-0.002441	-0.003357
26.403	0.005341	0.10666	0.28976	0.015411	-0.026703	-0.16083	0.050354	-0.001068	0.027313	-0.009155	-0.11826	-0.002136	0.52322	0.083771	0.13794	-0.005493	0.037231	-0.13596	-0.28763	-0.048065	0.27115	0.31143	0.068512	-0.08728	0.2771	-0.012665	-0.63049	-0.006866	-0.12207	-0.1944	-0.002289	-0.014343
26.404	0.016479	0.093536	0.22034	0.023499	0.028381	-0.14877	0.078583	-0.000305	0.017853	0.03952	-0.042572	0.009308	0.000458	0.13214	-0.22369	-0.005493	0.071259	-0.2066	-0.39642	-0.061035	0.20859	0.071106	0.15243	-0.17288	0.56107	-0.017395	-0.36529	-0.00824	-0.49774	-0.13916	-0.004425	-0.016785
26.405	0.013275	0.097809	0.39612	0.012054	0.06485	-0.121	0.10986	-0.003204	0.001678	0.086212	0.05188	-0.002594	-0.027008	0.11002	-0.49439	0.001068	0.11414	-0.18036	-0.56244	-0.01358	0.049744	-0.1799	0.22553	-0.25757	0.21668	-0.01236	-0.12116	-0.011292	-0.50964	-0.069427	-0.001373	-0.006714
26.406	0.01236	0.10468	0.37293	0.01358	0.072021	-0.018463	0.14114	-0.010223	-0.00824	0.072174	-0.062256	-0.006256	0.031128	0.063782	-0.1683	-0.011749	0.11063	-0.095673	-0.55588	-0.070038	-0.22614	-0.39307	0.011597	-0.29007	-0.28503	-0.020447	-0.19943	-0.010223	-0.22934	0.002747	-0.002594	-0.014191
26.407	0.000763	0.094452	0.37842	0.009918	0.035858	0.058441	0.13351	0.021362	-0.014496	0.072479	-0.12528	0.000305	0.060425	-0.027771	-0.27145	-0.004578	0.066986	-0.087738	-0.51407	-0.066071	-0.65628	-0.4332	-0.17242	-0.27039	-0.56488	-0.017853	-0.17883	-0.006714	0.15182	0.00351	-0.000305	-0.011749
26.408	0.00473	0.093079	0.34653	0.014343	0.020294	0.12146	0.12741	0.016632	-0.001373	0.077515	-0.093384	-0.010529	-0.011444	-0.083618	-0.35263	-0.018005	-0.088806	-0.034943	-0.14374	-0.13062	-0.1329	-0.20325	-0.43243	-0.039215	-0.68741	-0.0177	-0.32089	-0.009613	0.72113	0.075226	-0.003052	-0.010376
26.409	0.002747	0.13901	0.31738	0.019226	0.010529	0.11597	0.12131	0.001984	-0.012665	0.047607	-0.077057	-0.000763	-0.0383	-0.041504	-0.13428	-0.014954	-0.16251	-0.028229	0.092316	-0.12573	0.54764	-0.000153	-0.57877	0.21332	-0.066833	-0.012512	-0.16556	-0.004578	0.093231	0.10773	-0.001831	-0.007782
26.41	-0.002441	0.15152	0.36865	0.017242	-0.007629	0.097046	0.11765	0.009308	-0.012054	0.06073	-0.038757	0	-0.084229	-0.028992	0.054474	-0.004578	-0.11688	-0.023956	-0.29053	-0.045776	0.51102	-0.02655	-0.45715	0.43945	-0.083008	-0.003052	-0.072937	-0.007782	-0.085449	0.11932	-0.002441	-0.019836
26.411	0.000305	0.1294	0.35263	0.021515	0.031891	0.052643	0.10605	0.007019	-0.018616	0.085449	0.023499	-0.004883	-0.069427	-0.092773	-0.063477	-0.006714	-0.049286	-0.041046	-0.004578	0.025787	0.72296	-0.24719	0.012054	0.44342	-0.57861	-0.01358	-0.037384	-0.004425	-0.030518	0.055847	-0.002441	-0.013733
26.412	0.003052	0.10819	0.36682	0.011444	0.039673	0.0383	0.10941	0.001221	-0.015106	0.10071	0.12756	-0.000763	-0.04425	-0.056305	0.003662	0.004272	0.098572	-0.090637	-0.16937	0.070648	0.23377	-0.22095	0.19699	0.24582	-0.59235	-0.014191	0.019531	-0.006714	-0.034637	0.085144	-0.00412	-0.016479
